<?xml version="1.0" encoding="UTF-8" standalone="no"?>
<svg
   id="Capa_2"
   data-name="Capa 2"
   viewBox="0 0 515.33 510.3"
   version="1.1"
   sodipodi:docname="Logo XY Negro.svg"
   inkscape:version="1.4 (e7c3feb100, 2024-10-09)"
   xmlns:inkscape="http://www.inkscape.org/namespaces/inkscape"
   xmlns:sodipodi="http://sodipodi.sourceforge.net/DTD/sodipodi-0.dtd"
   xmlns="http://www.w3.org/2000/svg"
   xmlns:svg="http://www.w3.org/2000/svg">
  <sodipodi:namedview
     id="namedview17"
     pagecolor="#ffffff"
     bordercolor="#000000"
     borderopacity="0.25"
     inkscape:showpageshadow="2"
     inkscape:pageopacity="0.0"
     inkscape:pagecheckerboard="0"
     inkscape:deskcolor="#d1d1d1"
     showguides="true"
     inkscape:zoom="1.80874"
     inkscape:cx="257.91435"
     inkscape:cy="255.14999"
     inkscape:window-width="1920"
     inkscape:window-height="1168"
     inkscape:window-x="0"
     inkscape:window-y="0"
     inkscape:window-maximized="1"
     inkscape:current-layer="Capa_2">
    <sodipodi:guide
       position="355.49609,199.03358"
       orientation="0.70710678,0.70710678"
       id="guide17"
       inkscape:locked="false"
       inkscape:label=""
       inkscape:color="rgb(0,134,229)" />
    <sodipodi:guide
       position="328.95828,207.87952"
       orientation="0.70710678,0.70710678"
       id="guide18"
       inkscape:label=""
       inkscape:locked="false"
       inkscape:color="rgb(0,134,229)" />
  </sodipodi:namedview>
  <defs
     id="defs1">
    <style
       id="style1">
      .cls-1 {
        fill: #1d1d1b;
        stroke: #fff;
        stroke-miterlimit: 10;
        stroke-width: 12px;
      }
    </style>
  </defs>
  <polygon
     class="cls-1"
     points="496.53 414.34 496.53 504.3 389.7 504.3 253.16 362.53 324.66 288.28 349.29 262.71 496.53 414.34"
     id="polygon1"
     style="fill:#ffffff;fill-opacity:1;stroke:#000000;stroke-opacity:1" />
  <polygon
     class="cls-1"
     points="253.16 163.5 205.09 213.1 157.03 262.71 6 105.57 6 16.08 110.31 16.08 253.16 163.5"
     id="polygon2" />
  <polygon
     class="cls-1"
     points="349.29 262.71 324.66 288.28 253.16 362.53 157.03 262.71 205.09 213.2 253.16 163.7 349.29 262.71"
     id="polygon3" />
  <polygon
     class="cls-1"
     points="494.3 15.1 494.3 104.95 346.95 262.71 253.16 163.11 392.54 15.1 494.3 15.1"
     id="polygon4" />
  <polygon
     class="cls-1"
     points="6.01 504.3 6.01 416.78 157.03 263.12 253.16 360.13 110.3 504.3 6.01 504.3"
     id="polygon5" />
  <line
     class="cls-1"
     x1="277.05"
     y1="188.31"
     x2="323.96"
     y2="141.88"
     id="line5" />
  <ellipse
     class="cls-1"
     cx="335.67"
     cy="130.19"
     rx="11.71"
     ry="11.91"
     id="ellipse5"
     style="fill:#000000;fill-opacity:1" />
  <ellipse
     class="cls-1"
     cx="444.22"
     cy="71.96"
     rx="15.34"
     ry="15.59"
     id="ellipse6" />
  <ellipse
     class="cls-1"
     cx="444.22"
     cy="450.97"
     rx="15.34"
     ry="15.59"
     id="ellipse7"
     style="fill:#ffffff;fill-opacity:1;stroke:#000000;stroke-opacity:1" />
  <ellipse
     class="cls-1"
     cx="61.46"
     cy="71.96"
     rx="15.34"
     ry="15.59"
     id="ellipse8" />
  <ellipse
     class="cls-1"
     cx="61.46"
     cy="450.97"
     rx="15.34"
     ry="15.59"
     id="ellipse9" />
  <line
     class="cls-1"
     x1="300.5"
     y1="212.46"
     x2="428.89"
     y2="84.04"
     id="line10" />
  <line
     class="cls-1"
     x1="200.83"
     y1="308.19"
     x2="73.01"
     y2="438.76"
     id="line11" />
  <line
     class="cls-1"
     x1="205.09"
     y1="213.2"
     x2="73.01"
     y2="84.04"
     id="line12" />
  <line
     class="cls-1"
     x1="304.96207"
     y1="317.45615"
     x2="429.02805"
     y2="438.89969"
     id="line13"
     style="stroke:#0e0e0e;stroke-opacity:1" />
  <line
     class="cls-1"
     x1="223.5"
     y1="333.47"
     x2="173.41"
     y2="381.82"
     id="line14" />
  <line
     class="cls-1"
     x1="328.66241"
     y1="292.75641"
     x2="378.81363"
     y2="342.43524"
     id="line15"
     style="stroke:#000000;stroke-opacity:1" />
  <ellipse
     class="cls-1"
     cx="385.2215"
     cy="348.40851"
     rx="11.71"
     ry="11.91"
     id="ellipse15"
     style="stroke:#000000;stroke-opacity:1;fill:#000000;fill-opacity:1" />
  <ellipse
     class="cls-1"
     cx="164.84"
     cy="393.5"
     rx="11.71"
     ry="11.91"
     id="ellipse16"
     style="fill:#000000;fill-opacity:1" />
  <g
     id="g17">
    <line
       class="cls-1"
       x1="227.4"
       y1="190.23"
       x2="177.31"
       y2="141.88"
       id="line16" />
    <ellipse
       class="cls-1"
       cx="168.74"
       cy="130.19"
       rx="11.71"
       ry="11.91"
       id="ellipse17" />
  </g>
  <ellipse
     class="cls-7"
     cx="252.45961"
     cy="263.69067"
     rx="39.303482"
     ry="39.944027"
     id="ellipse23"
     style="fill:none;fill-opacity:1;stroke:#ffffff;stroke-width:10.6776;stroke-miterlimit:10;stroke-dasharray:none;stroke-opacity:1" />
  <line
     class="cls-7"
     x1="224.98064"
     y1="233.79506"
     x2="282.48645"
     y2="290.57819"
     id="line27-3"
     style="fill:none;stroke:#ffffff;stroke-width:13.7051;stroke-miterlimit:10;stroke-dasharray:none;stroke-opacity:1" />
</svg>
