<svg xmlns="http://www.w3.org/2000/svg" height="800" width="1200" viewBox="-299.02215 -486.78 2591.5253 2920.68"><path d="M463.6 1251.72v463.6c0 128 342.462 231.8 764.94 231.8 422.478 0 764.94-103.8 764.94-231.8v-463.6z" fill="#881421"/><path d="M463.6 741.76v509.96c0 128 342.462 231.8 764.94 231.8 422.478 0 764.94-103.8 764.94-231.8V741.76z" fill="#AF2031"/><path d="M463.6 231.8v509.96c0 128 342.462 231.8 764.94 231.8 422.478 0 764.94-103.8 764.94-231.8V231.8z" fill="#C94F60"/><ellipse ry="231.8" rx="764.94" cy="231.8" cx="1228.541" fill="#E08095"/><path d="M1027.662 417.24H463.6v1159h564.062c46.869-.153 84.825-38.109 84.978-84.978V502.218c-.152-46.869-38.109-84.825-84.978-84.978z" opacity=".1"/><path d="M981.302 463.6H463.6v1159h517.702c46.869-.153 84.825-38.109 84.978-84.978V548.578c-.152-46.869-38.109-84.825-84.978-84.978z" opacity=".2"/><path d="M981.302 463.6H463.6v1066.28h517.702c46.869-.153 84.825-38.109 84.978-84.978V548.578c-.152-46.869-38.109-84.825-84.978-84.978z" opacity=".2"/><path d="M934.943 463.6H463.6v1066.28h471.342c46.869-.153 84.825-38.109 84.978-84.978V548.578c-.152-46.869-38.109-84.825-84.977-84.978z" opacity=".2"/><linearGradient gradientTransform="matrix(1 0 0 -1 0 1949.12)" y2="399.2" x2="842.74" y1="1551.92" x1="177.181" gradientUnits="userSpaceOnUse" id="a"><stop offset="0" stop-color="#b72c3f"/><stop offset=".5" stop-color="#b12334"/><stop offset="1" stop-color="#9d1623"/></linearGradient><path d="M84.978 463.6h849.965c46.932 0 84.978 38.046 84.978 84.978v849.964c0 46.932-38.046 84.978-84.978 84.978H84.978C38.046 1483.52 0 1445.474 0 1398.542V548.578C0 501.646 38.046 463.6 84.978 463.6z" fill="url(#a)"/><path d="M448.904 697.301h125.172l201.11 552.472H656.968l-44.32-131.755H405.743l-43.532 131.755H244.735zm137.133 335.6L521.736 832.95a262.066 262.066 0 01-11.775-45.108h-2.318a255.23 255.23 0 01-11.544 46.36l-64.904 198.792z" fill="#FFF"/></svg>