<svg xmlns="http://www.w3.org/2000/svg" height="800" width="1200" viewBox="-36 -58.5 312 351"><path fill="#00e4bb" d="M0 0h240v234H0z"/><path fill="#002620" d="M10 10h220v214H10z"/><path d="M66.6 135l-7.7 28.6c-.2.8-.5 1.4-1.5 1.4H43.1c-1 0-1.1-.3-1-1.4l27.7-96.4c.5-1.8.8-3.3 1-8.2 0-.7.3-1 .8-1H92c.6 0 1 .2 1.1 1l31.1 104.7c.2.8 0 1.3-.8 1.3h-16.1c-.8 0-1.3-.6-1.4-1.2l-8-28.8zm27.2-16c-2.7-10.8-9.2-34.3-11.6-45.7H82c-2 11.4-7.2 30.6-11.2 45.7zM194 149.3c0 1.1.2 4.5.5 10 0 .6-.1 1-.7 1.1-8.5 3.2-18.2 6.6-30.1 6.6-14.6 0-28.7-5.6-28.7-28.2V87.3c0-.8.3-1.3 1.1-1.3h15.7c.8 0 1.1.5 1.1 1.3v49.4c0 9.5 4.1 14.6 14.1 14.6 4 0 7.4-.8 9.9-1.8V87.3c0-.8.3-1.3 1.1-1.3h14.7c1 0 1.1.5 1.1 1.3z" fill="#00e4bb"/></svg>