<svg xmlns="http://www.w3.org/2000/svg" height="800" width="1200" viewBox="-36 -58.5 312 351"><path fill="#35fa00" d="M0 0h240v234H0z"/><path fill="#072600" d="M10 10h220v214H10z"/><path d="M31.3 55.1c0-.8.2-1.2 1.2-1.3 3.8-.2 14.7-.5 25.9-.5 33.5 0 50.2 21.6 50.2 53.3 0 44.1-28.9 57.4-51.2 57.4-8.4 0-20.6-.2-25.1-.3-.7 0-1-.5-1-1.3-.1-.1-.1-107.3 0-107.3zm18 92.7c2.8.2 5.3.3 8.4.3 18.5 0 32.2-13 32.3-41.1.2-27.4-14-38-31.7-38-3.5 0-6.3.2-9.1.3v78.5zm126.8 15.7c-1.2 0-1.5-.4-1.6-1.4-4.9-27.6-9.1-47-10.9-60.6h-.2c-2.1 12.2-6.1 32.5-12.7 60.7-.3 1-.7 1.3-1.5 1.3H133c-1.2 0-1.5-.2-1.8-1.2l-17.7-78.8c-.2-.7.2-1.3 1.2-1.3h16.2c.7 0 1.2.2 1.3.9 6.3 35.5 8.9 53.8 9.9 61.1h.7c1.2-8.6 4.6-26.5 12-60.8.3-1 .3-1.2 1.3-1.2h17c.8 0 1 .4 1.2 1.2 5.8 32.5 9.6 53 10.6 61.3h.5c1.6-10.6 3.8-24.8 10.9-61.4.2-.7.3-1.1 1.2-1.1h15.2c.7 0 1.2.3.8 1.2l-19.6 78.9c-.2.8-.3 1.2-1.5 1.2z" fill="#35fa00"/></svg>