<svg width="295" height="246" viewBox="0 0 295 246" fill="none" xmlns="http://www.w3.org/2000/svg" class="wsc-svg-logo-filmora-vertical-white">
<g filter="url(#filmora-vertical-white-filter0_i_4_39413)">
<rect x="87.5" width="120" height="120" rx="27.375" fill="url(#filmora-vertical-white-paint0_linear_4_39413)"/>
<path d="M134.283 54.4537L118 38.1526L138.136 18L158.265 38.1442L135.184 61.2581L135.075 61.1494C136.364 59.0522 136.101 56.2703 134.283 54.4537Z" fill="white"/>
<path d="M180.781 60.1505L138.136 102.828L118 82.6768L160.644 40L180.781 60.1505Z" fill="#55E5C5"/>
</g>
<path d="M48.4289 138.75L39.0289 173.75H34.8289L26.1789 145.25L17.4789 173.75H13.2789L3.87891 138.75H8.47891L15.5789 167.45L24.1789 138.75H28.3789L36.9789 167.5L44.0789 138.75H48.4289ZM60.8238 148C67.9738 148 73.0238 153.05 73.0238 161.15C73.0238 169.3 67.9738 174.3 60.8238 174.3C53.7238 174.3 48.6738 169.3 48.6738 161.15C48.6738 153.05 53.7238 148 60.8238 148ZM68.7738 161.15C68.7738 155.05 65.3238 151.8 60.7738 151.8C56.0238 151.8 52.9238 155.4 52.9238 161.15C52.9238 167.25 56.3738 170.5 60.9238 170.5C65.6738 170.5 68.7738 166.9 68.7738 161.15ZM90.1195 148C95.3195 148 99.0195 151.1 99.0195 156.6V173.75H94.8695V157C94.8695 154.25 93.2195 151.75 89.3695 151.75C84.8695 151.75 81.9195 155.2 81.9195 160.8V173.75H77.7695V148.45H81.8695V152.85C83.3195 150.1 85.8695 148 90.1195 148ZM127.612 138.2V173.75H123.612V168.8C122.412 171.85 119.712 174.3 114.962 174.3C107.162 174.3 103.512 167.75 103.512 161.15C103.512 154.6 107.212 148 115.012 148C119.312 148 122.112 150 123.462 152.6V138.2H127.612ZM115.462 170.45C120.912 170.45 123.362 165.85 123.362 160.95C123.362 156.1 120.912 151.7 115.512 151.7C110.062 151.7 107.762 156.25 107.762 161.1C107.762 166 110.062 170.45 115.462 170.45ZM155.221 162.15H136.421C136.571 167.85 139.971 170.6 144.321 170.6C147.471 170.6 150.071 169.1 150.921 166.4H155.021C153.721 171.8 148.921 174.3 144.121 174.3C138.071 174.3 132.371 170.15 132.371 161.1C132.371 152 138.121 148 144.171 148C150.221 148 155.221 151.9 155.221 160.2V162.15ZM144.071 151.6C140.421 151.6 137.071 153.6 136.521 158.8H151.071C151.071 154.4 148.171 151.6 144.071 151.6ZM173.003 148.2V152.15H171.853C166.903 152.15 164.103 154.95 164.103 160.6V173.75H159.953V148.45H164.053V152.85C165.353 149.75 168.053 148.2 171.803 148.2H173.003ZM186.058 159.4C190.108 160 195.708 160.55 195.708 166.35C195.708 171.75 190.808 174.3 185.508 174.3C179.958 174.3 175.008 171.55 174.508 165.85H178.808C179.308 169.2 182.358 170.6 185.808 170.6C188.958 170.6 191.308 169.4 191.308 166.9C191.308 164.4 189.008 163.8 186.458 163.4C182.008 162.7 175.158 162.1 175.158 155.6C175.158 150.5 179.458 148 184.808 148C190.108 148 194.958 150.45 195.008 156H190.758C190.708 153 187.858 151.7 184.808 151.7C181.958 151.7 179.458 152.8 179.458 155.4C179.458 158.25 182.408 158.85 186.058 159.4ZM212.541 148C217.741 148 221.441 151.1 221.441 156.6V173.75H217.291V157C217.291 154.25 215.641 151.75 211.791 151.75C207.291 151.75 204.341 155.2 204.341 160.8V173.75H200.191V138.2H204.341V152.95C205.791 150.15 208.291 148 212.541 148ZM237.934 148C243.434 148 246.984 150.4 246.984 156.05V173.75H242.934V169.65C240.634 173.3 236.784 174.3 233.984 174.3C229.584 174.3 225.934 171.8 225.934 166.95C225.934 160.9 231.284 159.9 233.584 159.5L238.584 158.65C241.184 158.2 242.884 157.7 242.884 155.3C242.884 152.75 240.834 151.65 237.734 151.65C233.834 151.65 231.584 153.35 230.934 156.1H226.734C227.484 150.85 232.084 148 237.934 148ZM242.834 160.6C241.634 161.15 240.634 161.4 238.534 161.75L235.484 162.25C232.934 162.65 230.134 163.2 230.134 166.6C230.134 169.55 232.234 170.6 234.834 170.6C238.834 170.6 242.834 168.05 242.834 162.9V160.6ZM266.273 148.2V152.15H265.123C260.173 152.15 257.373 154.95 257.373 160.6V173.75H253.223V148.45H257.323V152.85C258.623 149.75 261.323 148.2 265.073 148.2H266.273ZM290.389 162.15H271.589C271.739 167.85 275.139 170.6 279.489 170.6C282.639 170.6 285.239 169.1 286.089 166.4H290.189C288.889 171.8 284.089 174.3 279.289 174.3C273.239 174.3 267.539 170.15 267.539 161.1C267.539 152 273.289 148 279.339 148C285.389 148 290.389 151.9 290.389 160.2V162.15ZM279.239 151.6C275.589 151.6 272.239 153.6 271.689 158.8H286.239C286.239 154.4 283.339 151.6 279.239 151.6Z" fill="white"/>
<path d="M31.3797 221.31V244.75H20.9797V188.75H58.5797V198.51H31.3797V211.55H56.4197V221.31H31.3797ZM62.4353 198.11V186.83H72.9953V198.11H62.4353ZM62.7553 244.75V203.55H72.6753V244.75H62.7553ZM91.9809 187.87V244.75H82.0609V187.87H91.9809ZM145.835 202.83C154.715 202.83 160.315 208.11 160.315 216.99V244.75H150.395V218.91C150.395 214.03 148.075 211.79 143.835 211.79C139.115 211.79 135.915 214.67 135.915 221.63V244.75H125.995V218.91C125.995 214.03 123.515 211.79 119.355 211.79C114.715 211.79 111.515 214.75 111.515 221.55V244.75H101.595V203.55H111.355V209.63C112.635 206.35 115.915 202.83 122.155 202.83C127.675 202.83 131.755 205.31 133.675 209.63C135.275 206.67 138.395 202.83 145.835 202.83ZM187.089 202.83C199.169 202.83 207.569 210.83 207.569 224.19C207.569 237.63 199.169 245.63 187.089 245.63C175.089 245.63 166.689 237.63 166.689 224.19C166.689 210.83 175.089 202.83 187.089 202.83ZM187.009 212.03C180.609 212.03 176.849 216.51 176.849 224.19C176.849 232.51 181.249 236.43 187.249 236.43C193.649 236.43 197.409 231.95 197.409 224.19C197.409 215.95 193.009 212.03 187.009 212.03ZM237.616 203.07V212.75H234.976C228.016 212.75 224.256 216.51 224.256 224.59V244.75H214.336V203.55H224.176V209.63C226.256 205.15 230.096 203.07 234.896 203.07H237.616ZM259.593 202.83C268.633 202.83 275.193 206.51 275.193 216.19V244.75H265.513V238.75C262.313 244.03 256.953 245.63 252.553 245.63C245.993 245.63 239.273 242.11 239.273 233.39C239.273 223.07 248.633 221.31 252.393 220.75L260.713 219.55C262.313 219.31 265.513 218.67 265.513 215.23C265.513 212.11 262.233 210.99 258.713 210.99C252.553 210.99 250.793 213.95 249.913 217.07H240.473C242.073 207.47 249.353 202.83 259.593 202.83ZM255.113 237.39C261.113 237.39 265.273 232.99 265.273 227.47V225.23C263.753 225.87 262.073 226.11 259.993 226.43L255.833 227.07C254.073 227.31 249.193 228.03 249.193 232.59C249.193 235.87 251.593 237.39 255.113 237.39Z" fill="white"/>
<defs>
<filter id="filmora-vertical-white-filter0_i_4_39413" x="87.5" y="0" width="120" height="120" filterUnits="userSpaceOnUse" color-interpolation-filters="sRGB">
<feFlood flood-opacity="0" result="BackgroundImageFix"/>
<feBlend mode="normal" in="SourceGraphic" in2="BackgroundImageFix" result="shape"/>
<feColorMatrix in="SourceAlpha" type="matrix" values="0 0 0 0 0 0 0 0 0 0 0 0 0 0 0 0 0 0 127 0" result="hardAlpha"/>
<feOffset/>
<feGaussianBlur stdDeviation="0.468749"/>
<feComposite in2="hardAlpha" operator="arithmetic" k2="-1" k3="1"/>
<feColorMatrix type="matrix" values="0 0 0 0 0 0 0 0 0 0 0 0 0 0 0 0 0 0 0.24 0"/>
<feBlend mode="darken" in2="shape" result="effect1_innerShadow_4_39413"/>
</filter>
<linearGradient id="filmora-vertical-white-paint0_linear_4_39413" x1="147.5" y1="0" x2="147.5" y2="120" gradientUnits="userSpaceOnUse">
<stop stop-color="#203D51"/>
<stop offset="1" stop-color="#143247"/>
</linearGradient>
</defs>
</svg>
