<svg xmlns="http://www.w3.org/2000/svg" xmlns:xlink="http://www.w3.org/1999/xlink" version="1.1" x="0px" y="0px" viewBox="0 0 100 125" style="enable-background:new 0 0 100 100;" xml:space="preserve"><path d="M63.9,87.1h-3.1v-3.2H39.1v3.2H36c-2.1,0-3.8,1.6-3.8,3.6s1.6,3.6,3.8,3.6h27.9c2.1,0,3.8-1.6,3.8-3.6  C67.6,88.6,66,87.1,63.9,87.1z"/><path d="M83.8,27h-3.7v5.1h3.7c0.3,0,0.5,0.3,0.5,0.6l-0.1,38.8H15.8V32.8c0-0.4,0.3-0.6,0.5-0.6h3.5v-5.1h-3.6  c-3.1,0-5.7,2.6-5.7,5.8v43c0,3.2,2.6,5.8,5.7,5.8h67.5c3.1,0,5.7-2.6,5.7-5.8V32.8C89.5,29.5,87,27,83.8,27z M50,78.9  c-1.3,0-2.4-1.1-2.4-2.4s1.1-2.4,2.4-2.4c1.3,0,2.4,1.1,2.4,2.4C52.4,77.9,51.3,78.9,50,78.9z"/><path d="M71.7,5.7H28.3c-3.6,0-6.6,2.9-6.6,6.6V51c0,3.6,2.9,6.6,6.6,6.6h11.1L50,68.2l10.6-10.6h11.1c3.6,0,6.6-2.9,6.6-6.6V12.2  C78.3,8.5,75.3,5.7,71.7,5.7z M60.8,17.6c-0.2-0.6,0-1.5,0.5-2l3.6-3.2c0.5-0.4,1.3-0.4,1.8,0.1l1,1l1,1c0.5,0.5,0.5,1.3,0.1,1.8  L65.7,20c-0.4,0.5-1.3,0.7-2,0.5L63,20.2l-8.4,8.4l-1.9-1.9l8.4-8.4L60.8,17.6z M37.4,50.6c-0.5,0.5-1.3,0.5-1.7,0l-5-5  c-0.5-0.5-0.5-1.3,0-1.7l11.8-11.8l0.8,0.8l0,0l6,6L37.4,50.6z M70.6,47.8l-5.2-5.2c-1.3-1.3-3.3-1.3-4.6,0c-1.3,1.3-1.3,3.3,0,4.6  l5.2,5.2c-2.8,1-6.1,0.5-8.3-1.8c-1.9-1.9-2.6-4.6-2.1-7.1L37.8,25.7c-2.5,0.5-5.2-0.2-7.1-2.1c-2.2-2.2-2.8-5.5-1.8-8.3l5.2,5.2h0  c1.3,1.3,3.3,1.3,4.6,0c1.3-1.3,1.3-3.3,0-4.6h0l-5.2-5.2c2.8-1,6.1-0.5,8.3,1.8c1.9,1.9,2.6,4.6,2.1,7.1l17.8,17.8  c2.5-0.5,5.2,0.2,7.1,2.1C71.1,41.7,71.7,45,70.6,47.8z"/><text x="0" y="115" fill="#000000" font-size="5px" font-weight="bold" font-family="'Helvetica Neue', Helvetica, Arial-Unicode, Arial, Sans-serif"></text><text x="0" y="120" fill="#000000" font-size="5px" font-weight="bold" font-family="'Helvetica Neue', Helvetica, Arial-Unicode, Arial, Sans-serif"></text></svg>