<svg xmlns="http://www.w3.org/2000/svg" version="1.1" viewBox="-5.0 -10.0 110.0 135.0">
 <g>
  <path d="m81.25 78.125h-3.125v-21.875c0-4.418-3.0781-8.1055-7.1992-9.0938-2.207 1.7578-5.1367 2.8438-8.4258 2.8438-3.4766 0-6.5742-1.1875-8.8164-3.125h-22.434c-5.168 0-9.375 4.207-9.375 9.375v21.875h-3.125c-1.7266 0-3.125 1.3984-3.125 3.125 0 6.8945 5.6094 12.5 12.5 12.5h43.75c6.8945 0 12.5-5.6055 12.5-12.5 0-1.7266-1.3984-3.125-3.125-3.125zm-53.125-21.875c0-1.7227 1.4023-3.125 3.125-3.125h37.5c1.7227 0 3.125 1.4023 3.125 3.125v21.875h-43.75zm43.75 31.25h-43.75c-2.3086 0-4.3281-1.2578-5.4102-3.125h54.57c-1.0781 1.8672-3.1016 3.125-5.4102 3.125z"/>
  <path d="m92.508 6.8789c-0.78516-0.58984-1.8047-0.77344-2.7422-0.50781l-21.875 6.25c-1.3398 0.38281-2.2656 1.6094-2.2656 3.0039v16.09c-0.97656-0.28125-2.0195-0.46484-3.125-0.46484-5.2578 0-9.375 3.4297-9.375 7.8125s4.1172 7.8125 9.375 7.8125 9.375-3.4297 9.375-7.8125v-21.082l15.625-4.4609v11.945c-0.97656-0.28125-2.0195-0.46484-3.125-0.46484-5.2578 0-9.375 3.4297-9.375 7.8125s4.1172 7.8125 9.375 7.8125 9.375-3.4297 9.375-7.8125v-23.438c0-0.98047-0.46094-1.9062-1.2422-2.4961zm-30.008 33.746c-1.9375 0-3.125-1.0117-3.125-1.5625s1.1875-1.5625 3.125-1.5625 3.125 1.0117 3.125 1.5625-1.1875 1.5625-3.125 1.5625zm21.875-6.25c-1.9375 0-3.125-1.0117-3.125-1.5625s1.1875-1.5625 3.125-1.5625 3.125 1.0117 3.125 1.5625-1.1875 1.5625-3.125 1.5625z"/>
  <path d="m57.648 62.828-12.5-6.25c-0.96875-0.48047-2.1211-0.4375-3.043 0.13672-0.91797 0.57422-1.4805 1.5781-1.4805 2.6602v12.5c0 1.082 0.5625 2.0859 1.4805 2.6562 0.50391 0.3125 1.0742 0.46875 1.6445 0.46875 0.47656 0 0.95703-0.10938 1.3984-0.32812l12.5-6.25c1.0586-0.53125 1.7266-1.6133 1.7266-2.7969s-0.66797-2.2656-1.7266-2.7969zm-10.773 3.9883v-2.3867l2.3867 1.1953z"/>
  <path d="m29.852 34.047c0.44141 0.21875 0.92188 0.32812 1.3984 0.32812 0.57031 0 1.1406-0.15625 1.6445-0.46875 0.91797-0.57031 1.4805-1.5742 1.4805-2.6562v-21.875c0-1.082-0.5625-2.0859-1.4805-2.6562-0.92188-0.57422-2.0742-0.62109-3.043-0.14062l-11.84 5.9219h-8.6367c-1.7266 0-3.125 1.3984-3.125 3.125v9.375c0 1.7266 1.3984 3.125 3.125 3.125h8.6367zm-1.7266-7.8555-6.25-3.125v-5.5078l6.25-3.125zm-15.625-7.4414h3.125v3.125h-3.125z"/>
  <path d="m59.375 25c1.7266 0 3.125-1.3984 3.125-3.125v-3.125c0-1.7266-1.3984-3.125-3.125-3.125s-3.125 1.3984-3.125 3.125v3.125c0 1.7266 1.3984 3.125 3.125 3.125z"/>
  <path d="m40.625 25c1.7266 0 3.125-1.3984 3.125-3.125v-3.125c0-1.7266-1.3984-3.125-3.125-3.125s-3.125 1.3984-3.125 3.125v3.125c0 1.7266 1.3984 3.125 3.125 3.125z"/>
  <path d="m50 31.25c1.7266 0 3.125-1.3984 3.125-3.125v-15.625c0-1.7266-1.3984-3.125-3.125-3.125s-3.125 1.3984-3.125 3.125v15.625c0 1.7266 1.3984 3.125 3.125 3.125z"/>
 </g>
<text x="0.0" y="117.5" font-size="5.0" font-weight="bold" font-family="Arbeit Regular, Helvetica, Arial-Unicode, Arial, Sans-serif" fill="#000000"></text><text x="0.0" y="122.5" font-size="5.0" font-weight="bold" font-family="Arbeit Regular, Helvetica, Arial-Unicode, Arial, Sans-serif" fill="#000000"></text></svg>