<svg xmlns="http://www.w3.org/2000/svg" width="64" height="64" enable-background="new 0 0 64 64" viewBox="0 0 64 64" id="operating-system">
  <path fill="#5D9CEC" d="M60.5,8.24v31h-57v-31h4h4h4h4h4h22h2h2h2h2h3h2H60.5z M51.5,22.24v-6h-4v-2h-4l-1,2v6H51.5z M48,37.24
				l-2-3h-1.8l0.8-4h-5l0.8,4H38v1l-2.5-5l-2.5,5v-1h-2.5c0.73-0.98,0.66-2.38-0.23-3.27C29.29,30,27.71,30,26.73,30.971
				c-0.891,0.89-0.961,2.289-0.23,3.27H24v-4h-5v4h-1l-2,3H48z M36.5,22.24v-6h-4v-2h-4l-1,2v6H36.5z M21.5,22.24v-6h-4v-2h-4l-1,2
				v6H21.5z"></path>
  <path fill="#5D9CEC" d="M60.5,8.24v31h-57v-31h4h4h4h4h4h22h2h2h2h2h3h2H60.5z"></path>
  <path fill="#E6E9ED" d="M46,34.24l2,3H16l2-3h1h5h2.5c0.07,0.09,3.93,0.09,4,0H33h5h2.8h3.4H46z"></path>
  <polygon fill="#87BCF4" points="24 34.24 24 35.24 19 35.24 19 34.24 19 30.24 24 30.24"></polygon>
  <path fill="#48CFAD" d="M30.27,30.971c0.891,0.89,0.961,2.289,0.23,3.27h-0.01c-0.07,0.09-0.141,0.18-0.221,0.27
				c-0.979,0.971-2.56,0.971-3.539,0c-0.08-0.09-0.15-0.18-0.221-0.27H26.5c-0.73-0.98-0.66-2.38,0.23-3.27
				C27.71,30,29.29,30,30.27,30.971z"></path>
  <polygon fill="#FFF" points="45 30.24 44.2 34.24 44 35.24 41 35.24 40.8 34.24 40 30.24"></polygon>
  <polygon fill="#A0D468" points="35.5 30.24 38 35.24 33 35.24"></polygon>
  <path d="M60.5,46.26v-0.02v-4h3v4v0.02c0,1.65-1.35,3-3,3h-3C59.15,49.26,60.5,47.91,60.5,46.26z" opacity=".1"></path>
  <rect width="4" height="2" x="3.5" y="6.24" fill="#CCD1D9"></rect>
  <rect width="4" height="2" x="7.5" y="6.24" fill="#E6E9ED"></rect>
  <rect width="4" height="2" x="11.5" y="6.24" fill="#CCD1D9"></rect>
  <rect width="4" height="2" x="15.5" y="6.24" fill="#E6E9ED"></rect>
  <rect width="4" height="2" x="19.5" y="6.24" fill="#CCD1D9"></rect>
  <rect width="22" height="2" x="23.5" y="6.24" fill="#E6E9ED"></rect>
  <rect width="2" height="2" x="58.5" y="6.24" fill="#CCD1D9"></rect>
  <rect width="2" height="2" x="56.5" y="6.24" fill="#E6E9ED"></rect>
  <rect width="3" height="2" x="53.5" y="6.24" fill="#CCD1D9"></rect>
  <rect width="2" height="2" x="51.5" y="6.24" fill="#E6E9ED"></rect>
  <rect width="2" height="2" x="49.5" y="6.24" fill="#CCD1D9"></rect>
  <rect width="2" height="2" x="47.5" y="6.24" fill="#E6E9ED"></rect>
  <rect width="2" height="2" x="45.5" y="6.24" fill="#CCD1D9"></rect>
  <polygon fill="#F6BB42" points="46.499 15.24 47.5 16.24 42.5 16.24 42.499 15.24"></polygon>
  <polygon fill="#FFCE54" points="51.5 16.24 51.5 22.24 42.5 22.24 42.5 16.24 47.5 16.24"></polygon>
  <polygon fill="#F6BB42" points="16.499 15.24 17.5 16.24 12.5 16.24 12.499 15.24"></polygon>
  <polygon fill="#F6BB42" points="31.499 15.24 32.5 16.24 27.5 16.24 27.499 15.24"></polygon>
  <polygon fill="#FFCE54" points="36.5 16.24 36.5 22.24 27.5 22.24 27.5 16.24 32.5 16.24"></polygon>
  <polygon fill="#FFCE54" points="21.5 16.24 21.5 22.24 12.5 22.24 12.5 16.24 17.5 16.24"></polygon>
  <circle cx="32" cy="45.74" r="1.5" fill="#CCD1D9"></circle>
  <path fill="#CCD1D9" d="M63.5 46.26v1.98c0 1.689-1.311 3-3 3-.71 0-10.63 0-22.01 0-4.26 0-8.721 0-12.98 0-11.38 0-21.3 0-22.01 0-1.689 0-3-1.311-3-3v-1.98c0 1.65 1.35 3 3 3H32h28.5C62.15 49.26 63.5 47.91 63.5 46.26zM38.49 51.24l2 9H23.51l2-9C29.77 51.24 34.23 51.24 38.49 51.24z"></path>
  <path fill="#E6E9ED" d="M32,42.24H0.5v4v0.02c0,1.65,1.35,3,3,3H32h28.5c1.65,0,3-1.35,3-3v-4.02H32z M32,47.24
			c-0.83,0-1.5-0.67-1.5-1.5s0.67-1.5,1.5-1.5s1.5,0.67,1.5,1.5S32.83,47.24,32,47.24z"></path>
  <path fill="#656D78" d="M63.5,6.26v35.98H32H0.5V6.26c0-1.649,1.35-3,3-3h57C62.15,3.26,63.5,4.61,63.5,6.26z M60.5,39.24v-31v-2
				h-2h-2h-3h-2h-2h-2h-2h-22h-4h-4h-4h-4h-4v2v31H60.5z"></path>
  <path fill="#E6E9ED" d="M42,60.74H22c-0.276,0-0.5-0.224-0.5-0.5s0.224-0.5,0.5-0.5h20c0.276,0,0.5,0.224,0.5,0.5
				S42.276,60.74,42,60.74z"></path>
  <path fill="#4A89DC" d="M19.499 24.74h-4.998c-.276 0-.5-.224-.5-.5s.224-.5.5-.5h4.998c.276 0 .5.224.5.5S19.775 24.74 19.499 24.74zM34.499 24.74h-4.998c-.276 0-.5-.224-.5-.5s.224-.5.5-.5h4.998c.276 0 .5.224.5.5S34.775 24.74 34.499 24.74zM49.499 24.74h-4.998c-.276 0-.5-.224-.5-.5s.224-.5.5-.5h4.998c.276 0 .5.224.5.5S49.775 24.74 49.499 24.74z"></path>
  <path fill="#E6E9ED" d="M5.529,7.74c-0.275,0-0.504-0.224-0.504-0.5s0.219-0.5,0.494-0.5h0.01c0.277,0,0.5,0.224,0.5,0.5
				S5.807,7.74,5.529,7.74z"></path>
  <path fill="#AAB2BD" d="M38.713,52.243L38.49,51.24c-4.26,0-8.721,0-12.98,0l-0.223,1.003H38.713z"></path>
</svg>
