<svg xmlns="http://www.w3.org/2000/svg" data-name="Layer 1" viewBox="0 0 3000 3750" x="0px" y="0px"><title>Repair Service Icon</title><path d="M2537.29,1982.4a189.47,189.47,0,0,0-56.48-86.8l-78.45-68.42a189.67,189.67,0,0,0-177.93-39.1L2132.64,1815,1539,1297.14c34.17-90.45,35.57-188.08,3.57-269.41h0C1521,972.91,1486,928,1438.42,894.31c-46.65-33.08-102.9-53.63-167.21-61.11-63.78-7.42-125.72-7.56-184.08-.41a31.07,31.07,0,0,0-26,21.61,30.36,30.36,0,0,0,9.09,31.76L1246.59,1040c27.86,24.3,43.89,57.36,45.12,93.07,1.26,36.62-13,71.81-40.26,99.09-55.87,56-153.07,59.67-212.26,8L863.9,1087.29a31,31,0,0,0-32.5-5.23,30.63,30.63,0,0,0-19,26.3c-3.73,55.25.62,113.33,12.93,172.64,12.47,60,38.47,111.53,77.3,153.07,39.13,41.87,89.18,71.34,148.75,87.59a383.7,383.7,0,0,0,101.11,13.18c49.43,0,100.87-8.77,152.41-26.23,5.44-1.84,10.78-3.78,16.08-5.78L1950.53,2052a189.53,189.53,0,0,0,59.54,187.9l78.45,68.42a189.75,189.75,0,0,0,177.92,39.1l119.22-34.9A189.6,189.6,0,0,0,2516,2177.92l23.75-92A189.51,189.51,0,0,0,2537.29,1982.4ZM1288.83,1461.26c-78.49,26.58-156.06,30.79-224.32,12.17-101.3-27.64-168.86-99.59-190.25-202.6a611.53,611.53,0,0,1-13.17-119.64l145.24,126.69c38.31,33.42,88.69,50.77,141.78,48.86s102.49-23,138.73-59.27c37.11-37.19,56.59-85.53,54.84-136.14-1.72-49.7-23.81-95.52-62.22-129l-141.9-123.77a756.46,756.46,0,0,1,127.88,4.33c112.45,13.07,194.35,71,230.61,163.17h0c28.49,72.38,25.9,160.53-7.1,241.85C1447.9,1389,1357.46,1438,1288.83,1461.26Zm154.36-28.72a327.11,327.11,0,0,0,73.84-88.22l560.71,489.09a189.48,189.48,0,0,0-102.88,124.17l-10.38,40.23-593.17-517.39A390.93,390.93,0,0,0,1443.19,1432.54Zm1048.17,640.88-23.76,92a140.29,140.29,0,0,1-96,99.11l-119.22,34.89a139,139,0,0,1-131-28.79l-78.45-68.42a138.91,138.91,0,0,1-43.42-140.14l23.76-92a140.29,140.29,0,0,1,96-99.12l119.22-34.89a140.5,140.5,0,0,1,39.46-5.68,139,139,0,0,1,91.55,34.47l78.45,68.42A138.92,138.92,0,0,1,2491.36,2073.42Z"/><path d="M2112.57,1949.87,2068.66,2120l134.16,117,175.48-51.36,43.92-170.1-134.16-117ZM2337,2145.62l-121.94,35.7-90.26-78.74,29.09-112.7,121.95-35.69,90.26,78.73Z"/><path d="M1897.79,1739.51l-200.11-179.89a25,25,0,0,0-33.42,37.19l200.11,179.88a25,25,0,0,0,33.42-37.18Z"/><path d="M1861.9,2136.39a25,25,0,0,0-25,25v319.23c0,73.37-61.14,133.06-136.29,133.06H640.5c-75.15,0-136.29-59.69-136.29-133.06V519.38c0-73.37,61.14-133.06,136.29-133.06H1700.61c75.15,0,136.29,59.69,136.29,133.06v858.14a25,25,0,0,0,50,0V519.38c0-100.94-83.57-183.06-186.29-183.06H640.5c-102.72,0-186.29,82.12-186.29,183.06V2480.62c0,100.94,83.57,183.06,186.29,183.06H1700.61c102.72,0,186.29-82.12,186.29-183.06V2161.39A25,25,0,0,0,1861.9,2136.39Z"/><path d="M1689.66,1240.18a25,25,0,0,0,25-25V637.5c0-79.65-64.8-144.45-144.45-144.45H770.9c-79.65,0-144.45,64.8-144.45,144.45v1480c0,79.65,64.8,144.45,144.45,144.45h799.31c79.65,0,144.45-64.8,144.45-144.45V1951.18a25,25,0,0,0-50,0v166.36a94.56,94.56,0,0,1-94.45,94.45H770.9a94.56,94.56,0,0,1-94.45-94.45V637.5a94.56,94.56,0,0,1,94.45-94.45h799.31a94.56,94.56,0,0,1,94.45,94.45v577.68A25,25,0,0,0,1689.66,1240.18Z"/><path d="M1075.84,2433.12a118.84,118.84,0,1,0,118.84-118.83A119,119,0,0,0,1075.84,2433.12Zm187.67,0a68.84,68.84,0,1,1-68.83-68.83A68.91,68.91,0,0,1,1263.51,2433.12Z"/><text x="0" y="3015" fill="#000000" font-size="5px" font-weight="bold" font-family="'Helvetica Neue', Helvetica, Arial-Unicode, Arial, Sans-serif">Created by filosovis</text><text x="0" y="3020" fill="#000000" font-size="5px" font-weight="bold" font-family="'Helvetica Neue', Helvetica, Arial-Unicode, Arial, Sans-serif">from the Noun Project</text></svg>