<svg xmlns="http://www.w3.org/2000/svg" viewBox="0 0 32 40" x="0px" y="0px"><title>SEO 32px</title><g data-name="line copy"><path d="M15.97,25.2427l3-12a1,1,0,0,0-1.9395-.4854l-3,12A1,1,0,0,0,15.97,25.2427Z"/><path d="M4,17.1675V16a1,1,0,0,0-2,0v1.1675A1,1,0,0,0,4,17.1675Z"/><path d="M25,2H7A5.0059,5.0059,0,0,0,2,7v5a1,1,0,0,0,2,0V10H7A1,1,0,0,0,7,8H4V7A3.0033,3.0033,0,0,1,7,4H25a3.0033,3.0033,0,0,1,3,3V8H10a1,1,0,0,0,0,2H28V25a3.0033,3.0033,0,0,1-3,3H7a3.0033,3.0033,0,0,1-3-3V20a1,1,0,0,0-2,0v5a5.0059,5.0059,0,0,0,5,5H25a5.0059,5.0059,0,0,0,5-5V7A5.0059,5.0059,0,0,0,25,2Z"/><path d="M25,7a1,1,0,0,0,0-2H24a1,1,0,0,0,0,2Z"/><path d="M21,7a1,1,0,0,0,0-2H20a1,1,0,0,0,0,2Z"/><path d="M17,7a1,1,0,0,0,0-2H16a1,1,0,0,0,0,2Z"/><path d="M11,14a1,1,0,0,0,0-2,3.0007,3.0007,0,0,0-3.0937,2.7271C7.6729,17.1543,7.146,17.9258,7,18a1,1,0,1,0-.0117,2c.1748.1006.6885.8862.918,3.2734A2.9988,2.9988,0,0,0,11,26a1,1,0,0,0,0-2,1.0062,1.0062,0,0,1-1.1025-.9185A9.3159,9.3159,0,0,0,8.7686,19a9.3157,9.3157,0,0,0,1.1289-4.0811A1.0058,1.0058,0,0,1,11,14Z"/><path d="M21,24a1,1,0,0,0,0,2,2.9984,2.9984,0,0,0,3.0928-2.7271c.2334-2.4272.7617-3.1987.9072-3.2729a1,1,0,1,0,.0117-2c-.1748-.1006-.6895-.8862-.9189-3.2725A2.9977,2.9977,0,0,0,21,12a1,1,0,0,0,0,2,1.006,1.006,0,0,1,1.1025.9185A9.2959,9.2959,0,0,0,23.2314,19a9.296,9.296,0,0,0-1.1289,4.082A1.0062,1.0062,0,0,1,21,24Z"/></g><text x="0" y="47" fill="#000000" font-size="5px" font-weight="bold" font-family="'Helvetica Neue', Helvetica, Arial-Unicode, Arial, Sans-serif">Created by Desainer Kanan</text><text x="0" y="52" fill="#000000" font-size="5px" font-weight="bold" font-family="'Helvetica Neue', Helvetica, Arial-Unicode, Arial, Sans-serif">from the Noun Project</text></svg>