<svg xmlns="http://www.w3.org/2000/svg" height="800" width="1200" xml:space="preserve" y="0" x="0" id="Livello_1" version="1.1" viewBox="-192.21 -287.2 1665.82 1723.2"><style id="style7570" type="text/css">.st0{fill:#038387}.st3,.st4{opacity:.2;enable-background:new}.st4{opacity:.1}</style><path id="path7576" d="M887.2 104.9h341.3c29.2 0 52.9 23.7 52.9 52.9v833c0 29.2-23.7 52.9-52.9 52.9H887.2c-29.2 0-52.9-23.7-52.9-52.9v-833c.1-29.2 23.7-52.9 52.9-52.9z" class="st0"/><path id="path7578" d="M1050.6 1148.8H356.7c-30.8 0-55.8-24.5-55.8-54.7V861.6l439.3-95.7 366.1 95.7v232.5c0 30.2-25 54.7-55.7 54.7z" class="st0"/><path id="path7580" d="M1048.8 0H358.5c-31.8 0-57.6 25.4-57.5 56.6v517.8l414.9 47.9 390.5-47.9V56.6c0-31.2-25.8-56.6-57.6-56.6z" fill="#37c6d0"/><path id="rect7582" fill="#1a9ba1" d="M301 574.4h805.4v287.2H301z"/><path id="path7584" d="M675.3 305.2v616.2c.1 3.1-.3 6.3-.9 9.4-4.4 26.1-27.1 45.3-53.6 45.2H301V250.6h319.8c30.1-.1 54.5 24.3 54.5 54.3v.3z" class="st3"/><path id="path7586" d="M698.7 305.2v569.4c-.4 42.9-35 77.5-77.9 77.9H301V227.2h319.8c42.9.2 77.7 35 77.9 78z" class="st4"/><path id="path7588" d="M675.3 305.2v569.4c.1 30.1-24.3 54.5-54.3 54.5H301V250.6h319.8c30.1-.1 54.5 24.3 54.5 54.3v.3z" class="st3"/><path id="path7590" d="M651.9 305.2v569.4c.1 30.1-24.3 54.5-54.3 54.5H301V250.6h296.4c30.1-.1 54.5 24.3 54.5 54.3v.3z" class="st4"/><linearGradient y2="945.35" x2="541.256" y1="204.994" x1="113.811" gradientUnits="userSpaceOnUse" id="SVGID_1_"><stop id="stop7592" offset="0" stop-color="#058f92"/><stop id="stop7594" offset=".5" stop-color="#038489"/><stop id="stop7596" offset="1" stop-color="#026d71"/></linearGradient><path id="path7599" d="M54.6 247.6h545.9c30.2 0 54.6 24.4 54.6 54.6v545.9c0 30.2-24.4 54.6-54.6 54.6H54.6C24.4 902.7 0 878.3 0 848.1V302.2c0-30.1 24.4-54.6 54.6-54.6z" fill="url(#SVGID_1_)"/><path id="path7601" d="M332.7 396.9c34.4-2.3 68.4 7.9 95.8 28.8 23.1 21.3 35.3 51.9 33.2 83.3.4 21.9-5.3 43.4-16.4 62.3-11.1 18.4-27.4 33.1-46.7 42.4-21.9 10.5-45.9 15.7-70.2 15.1H262v126.8h-68.1V396.9zM261.9 574h58.7c18.7 1.4 37.2-4.3 51.8-15.9 12.3-12.2 18.7-29.1 17.5-46.4 0-39.5-22.4-59.3-67.2-59.3h-60.8z" fill="#fff"/><path id="rect7603" class="st3" d="M1106.4 104.9h23.8v938.7h-23.8z"/><path id="rect7605" class="st4" d="M1130.2 104.9h23.8v938.7h-23.8z"/></svg>